<svg width="20" height="16" viewBox="0 0 20 16" fill="none" xmlns="http://www.w3.org/2000/svg">
    <path opacity="0.75" d="M15.5 7C13 7 11 9.03125 11 11.5C11 14 13 16 15.5 16C17.9688 16 20 14 20 11.5C20 9.03125 17.9688 7 15.5 7ZM17 12H15.2812C15.125 12 15 11.875 15 11.7188V9.5C15 9.25 15.2188 9 15.5 9C15.75 9 16 9.25 16 9.5V11H17C17.25 11 17.5 11.25 17.5 11.5C17.5 11.75 17.25 12 17 12ZM7 8C9.1875 8 11 6.21875 11 4C11 1.8125 9.1875 0 7 0C4.78125 0 3 1.8125 3 4C3 6.21875 4.78125 8 7 8ZM7 1.5C8.375 1.5 9.5 2.625 9.5 4C9.5 5.40625 8.375 6.5 7 6.5C5.59375 6.5 4.5 5.40625 4.5 4C4.5 2.625 5.59375 1.5 7 1.5ZM12.3438 16H1C0.4375 16 0 15.5625 0 15C0 11.9688 2.4375 9.5 5.5 9.5H8.5C9.09375 9.5 9.6875 9.625 10.25 9.8125C10.0938 10.2812 10 10.7812 10 11.3125C9.53125 11.125 9.03125 11 8.5 11H5.5C3.4375 11 1.75 12.5312 1.53125 14.5H10.875C11.25 15.0938 11.75 15.625 12.3438 16Z" fill="#212944"/>
</svg>
