<svg xmlns="http://www.w3.org/2000/svg" width="226.433" height="46.6" viewBox="0 0 226.433 46.6">
  <g id="logo_1_" data-name="logo (1)" transform="translate(-8.9 -4.9)">
    <path id="Path_7" data-name="Path 7" d="M8.9,17.8h5.813v9.68a9.288,9.288,0,0,1,7.54-3.527c6.324,0,10,3.916,10,10.774V49.661H26.29V35.384c0-3.964-1.9-6.372-5.691-6.372-3.283,0-5.861,2.456-5.861,6.834V49.661H8.9Z" transform="translate(0 -9.763)" fill="#000d4a"/>
    <path id="Path_8" data-name="Path 8" d="M115.1,56.282A12.988,12.988,0,0,1,128.185,43.1a12.59,12.59,0,0,1,12.963,12.963v2.189h-20.5a7.462,7.462,0,0,0,7.759,5.934,7.354,7.354,0,0,0,6.98-4.427l4.767,2.748a12.6,12.6,0,0,1-11.747,6.81C120.475,69.319,115.1,63.554,115.1,56.282Zm5.837-2.894h14.3c-.851-3.405-3.454-5.156-7.053-5.156A7.429,7.429,0,0,0,120.937,53.388Z" transform="translate(-80.371 -28.909)" fill="#000d4a"/>
    <path id="Path_9" data-name="Path 9" d="M232.8,17.8h5.861V49.661H232.8Z" transform="translate(-169.444 -9.763)" fill="#000d4a"/>
    <path id="Path_10" data-name="Path 10" d="M271.5,17.8h5.861V49.661H271.5Z" transform="translate(-198.732 -9.763)" fill="#000d4a"/>
    <path id="Path_11" data-name="Path 11" d="M306,56.234a13.036,13.036,0,1,1,13.036,13.085A12.967,12.967,0,0,1,306,56.234Zm20.381,0a7.326,7.326,0,1,0-7.321,7.613A7.423,7.423,0,0,0,326.381,56.234Z" transform="translate(-224.841 -28.909)" fill="#000d4a"/>
    <path id="Path_12" data-name="Path 12" d="M402.3,46c4.524,0,5.2-.657,5.2-5.083V14.726h5.861V40.993c0,7.953-2.529,10.507-10.239,10.507H402.3Zm8.148-41.1A3.4,3.4,0,0,1,414.1,8.548a3.391,3.391,0,0,1-3.648,3.624A3.332,3.332,0,0,1,406.8,8.548,3.409,3.409,0,0,1,410.448,4.9Z" transform="translate(-297.719)" fill="#000d4a"/>
    <path id="Path_13" data-name="Path 13" d="M458.1,56.234a13.036,13.036,0,1,1,13.036,13.085A12.967,12.967,0,0,1,458.1,56.234Zm20.357,0a7.326,7.326,0,1,0-7.321,7.613A7.423,7.423,0,0,0,478.457,56.234Z" transform="translate(-339.948 -28.909)" fill="#000d4a"/>
    <path id="Path_14" data-name="Path 14" d="M581.564,46.478v3.283H575.8V17.9h5.813v9.85a10.332,10.332,0,0,1,8.148-3.7c6.324,0,12.4,4.767,12.4,13.134,0,8.269-6.275,13.085-12.307,13.085A10.264,10.264,0,0,1,581.564,46.478Zm14.86-9.388a7.543,7.543,0,1,0-15.079,0,7.544,7.544,0,0,0,7.491,7.832A7.638,7.638,0,0,0,596.425,37.09Z" transform="translate(-429.021 -9.838)" fill="#000d4a"/>
    <path id="Path_15" data-name="Path 15" d="M694.527,122.1A3.5,3.5,0,1,1,691,125.627,3.294,3.294,0,0,1,694.527,122.1Z" transform="translate(-516.203 -88.695)" fill="#2196f3"/>
    <path id="Path_16" data-name="Path 16" d="M727.3,56.234c0-8.342,6.1-13.134,12.477-13.134a10.516,10.516,0,0,1,8.1,3.527V43.635h5.813V68.808h-5.813V65.524a10.334,10.334,0,0,1-8.172,3.794C733.624,69.319,727.3,64.5,727.3,56.234Zm20.868-.073a7.578,7.578,0,1,0-15.152,0,7.58,7.58,0,1,0,15.152,0Z" transform="translate(-543.674 -28.909)" fill="#2196f3"/>
    <path id="Path_17" data-name="Path 17" d="M847.5,65.171l14.641-14.715H847.816V45.3H869.73v5.278L855.088,65.292h14.885v5.156H847.5V65.171Z" transform="translate(-634.64 -30.574)" fill="#2196f3"/>
  </g>
</svg>
