<svg width="16" height="15" viewBox="0 0 16 15" fill="none" xmlns="http://www.w3.org/2000/svg">
    <path opacity="0.75" d="M14 3H12V2C12 0.90625 11.0938 0 10 0H6C4.875 0 4 0.90625 4 2V3H2C0.875 3 0 3.90625 0 5V13C0 14.125 0.875 15 2 15H14C15.0938 15 16 14.125 16 13V5C16 3.90625 15.0938 3 14 3ZM6 1.5H10C10.25 1.5 10.5 1.75 10.5 2V3H5.5V2C5.5 1.75 5.71875 1.5 6 1.5ZM2 4.5H14C14.25 4.5 14.5 4.75 14.5 5V8H1.5V5C1.5 4.75 1.71875 4.5 2 4.5ZM14 13.5H2C1.71875 13.5 1.5 13.2812 1.5 13V9.5H6V10C6 10.5625 6.4375 11 7 11H9C9.53125 11 10 10.5625 10 10V9.5H14.5V13C14.5 13.2812 14.25 13.5 14 13.5Z" fill="#212944"/>
</svg>
