<svg width="20" height="21" viewBox="0 0 20 21" fill="none" xmlns="http://www.w3.org/2000/svg">
    <path d="M10 0.8125C4.64844 0.8125 0.3125 5.1875 0.3125 10.5C0.3125 15.8516 4.64844 20.1875 10 20.1875C15.3125 20.1875 19.6875 15.8516 19.6875 10.5C19.6875 5.1875 15.3125 0.8125 10 0.8125ZM14.4531 7.41406C14.3359 8.9375 13.7109 12.6875 13.3594 14.3672C13.2422 15.1094 12.9688 15.3438 12.6953 15.3828C12.1484 15.4219 11.7188 14.9922 11.1719 14.6406C10.3125 14.0938 9.84375 13.7422 9.02344 13.1953C8.04688 12.5703 8.67188 12.2188 9.21875 11.6719C9.375 11.5156 11.8359 9.25 11.875 9.05469C11.9141 9.01562 11.9141 8.9375 11.8359 8.85938C11.7969 8.82031 11.7188 8.85938 11.6406 8.85938C11.5625 8.85938 10.1953 9.75781 7.57812 11.5547C7.1875 11.8281 6.83594 11.9453 6.52344 11.9453C6.17188 11.9453 5.50781 11.75 5 11.5938C4.41406 11.3984 3.90625 11.2812 3.94531 10.9688C3.98438 10.7734 4.21875 10.6172 4.6875 10.4219C7.5 9.17188 9.375 8.39062 10.3125 8C13.0078 6.86719 13.5938 6.67188 13.9453 6.67188C14.0234 6.67188 14.2188 6.67188 14.3359 6.78906C14.375 6.82812 14.4531 6.94531 14.4531 7.02344C14.4922 7.17969 14.4922 7.29688 14.4531 7.41406Z" fill="white"/>
</svg>
