<svg width="18" height="14" viewBox="0 0 18 14" fill="none" xmlns="http://www.w3.org/2000/svg">
    <path opacity="0.75" d="M16 2H11.5938L10.0625 0.59375C9.6875 0.21875 9.1875 0 8.65625 0H5C3.875 0 3 0.90625 3 2V9C3 10.125 3.875 11 5 11H16C17.0938 11 18 10.125 18 9V4C18 2.90625 17.0938 2 16 2ZM16.5 9C16.5 9.28125 16.25 9.5 16 9.5H5C4.71875 9.5 4.5 9.28125 4.5 9V2C4.5 1.75 4.71875 1.5 5 1.5H8.65625C8.78125 1.5 8.90625 1.5625 9 1.65625L11 3.5H16C16.25 3.5 16.5 3.75 16.5 4V9ZM14.25 14H3.75C1.65625 14 0 12.3438 0 10.25V2.75C0 2.34375 0.3125 2 0.75 2C1.15625 2 1.5 2.34375 1.5 2.75V10.25C1.5 11.5 2.5 12.5 3.75 12.5H14.25C14.6562 12.5 15 12.8438 15 13.25C15 13.6875 14.6562 14 14.25 14Z" fill="#212944"/>
</svg>
