<svg width="14" height="16" viewBox="0 0 14 16" fill="none" xmlns="http://www.w3.org/2000/svg">
    <path opacity="0.75" d="M11.9688 7H11.75V5.25C11.75 4.84375 11.4062 4.5 11 4.5C10.5625 4.5 10.25 4.84375 10.25 5.25V7H7.75V5.25C7.75 4.84375 7.40625 4.5 7 4.5C6.5625 4.5 6.25 4.84375 6.25 5.25V7H3.75V5.25C3.75 4.84375 3.40625 4.5 3 4.5C2.5625 4.5 2.25 4.84375 2.25 5.25V7H2C0.875 7 0 7.875 0 8.96875V14.9688C0 15.5625 0.4375 16 1 16H13C13.5312 16 14 15.5625 14 15V9C14 7.90625 13.0938 7 11.9688 7ZM12.5 14.5H1.5V12.2812C2.0625 12.1875 2.5625 11.9688 3 11.6875C3.53125 12.0312 4.21875 12.3438 5 12.3438C5.75 12.3438 6.4375 12.0312 7 11.6875C7.53125 12.0312 8.21875 12.3438 9 12.3438C9.75 12.3438 10.4375 12.0312 11 11.6875C11.4062 11.9688 11.9062 12.2188 12.5 12.3125V14.5ZM12.5 10.75C12.0625 10.625 11.6875 10.3438 11.4375 10.1875C11.1875 9.96875 10.7812 9.96875 10.5312 10.1875C10.1875 10.4375 9.59375 10.8438 9 10.8438C8.375 10.8438 7.78125 10.4375 7.4375 10.1875C7.1875 9.96875 6.78125 9.96875 6.53125 10.1875C6.1875 10.4375 5.59375 10.8438 5 10.8438C4.375 10.8438 3.78125 10.4375 3.4375 10.1875C3.1875 9.96875 2.78125 9.96875 2.53125 10.1875C2.28125 10.3438 1.90625 10.625 1.5 10.75V9C1.5 8.75 1.71875 8.5 2 8.5H12C12.25 8.5 12.5 8.75 12.5 9V10.75ZM11 3.5C11.6875 3.5 12.25 2.9375 12.25 2.25C12.25 1.5625 11 0 11 0C11 0 9.75 1.5625 9.75 2.25C9.75 2.96875 10.2812 3.5 11 3.5ZM7 3.5C7.6875 3.5 8.25 2.9375 8.25 2.25C8.25 1.5625 7 0 7 0C7 0 5.75 1.5625 5.75 2.25C5.75 2.96875 6.28125 3.5 7 3.5ZM3 3.5C3.6875 3.5 4.25 2.9375 4.25 2.25C4.25 1.5625 3 0 3 0C3 0 1.75 1.5625 1.75 2.25C1.75 2.96875 2.28125 3.5 3 3.5Z" fill="#212944"/>
</svg>
