<?xml version="1.0" encoding="utf-8"?>
<!-- Generator: Adobe Illustrator 24.0.1, SVG Export Plug-In . SVG Version: 6.00 Build 0)  -->
<svg version="1.1" id="Layer_1" xmlns="http://www.w3.org/2000/svg" xmlns:xlink="http://www.w3.org/1999/xlink" x="0px" y="0px"
	 viewBox="0 0 946 200" style="enable-background:new 0 0 946 200;" xml:space="preserve">
<style type="text/css">
	.st0{fill:#FFFFFF;}
</style>
<g>
	<path class="st0" d="M8.9,17.8h23.9v39.8c7.1-9,17.7-14.5,31-14.5c26,0,41.1,16.1,41.1,44.3v61.4H80.4V90.1
		c0-16.3-7.8-26.2-23.4-26.2C43.5,63.9,32.9,74,32.9,92v56.8h-24V17.8z"/>
	<path class="st0" d="M115.1,97.3c0-30.3,23.5-54.2,53.8-54.2c30.8,0,53.3,22.7,53.3,53.3v9h-84.3c3.4,14.7,14.9,24.4,31.9,24.4
		c13.5,0,23.7-7.1,28.7-18.2l19.6,11.3c-9,16.8-25,28-48.3,28C137.2,150.9,115.1,127.2,115.1,97.3z M139.1,85.4h58.8
		c-3.5-14-14.2-21.2-29-21.2C154.5,64.2,143.4,72.7,139.1,85.4z"/>
	<path class="st0" d="M232.8,17.8h24.1v131h-24.1L232.8,17.8L232.8,17.8z"/>
	<path class="st0" d="M271.5,17.8h24.1v131h-24.1V17.8z"/>
	<path class="st0" d="M306,97.1c0-30.3,23.7-54,53.6-54c29.7,0,53.6,23.7,53.6,54c0,29.7-23.9,53.8-53.6,53.8
		C329.7,150.9,306,126.9,306,97.1z M389.8,97.1c0-17.5-13.1-31.5-30.1-31.5c-17.2,0-30.1,14-30.1,31.5c0,17.2,12.9,31.3,30.1,31.3
		C376.7,128.5,389.8,114.3,389.8,97.1z"/>
	<path class="st0" d="M402.3,173.9c18.6,0,21.4-2.7,21.4-20.9V45.3h24.1v108c0,32.7-10.4,43.2-42.1,43.2h-3.4V173.9z M435.8,4.9
		c9.4,0,15,6,15,15s-5.7,14.9-15,14.9c-9.7,0-15-5.8-15-14.9S426.6,4.9,435.8,4.9z"/>
	<path class="st0" d="M458.1,97.1c0-30.3,23.7-54,53.6-54c29.7,0,53.6,23.7,53.6,54c0,29.7-23.9,53.8-53.6,53.8
		C481.8,150.9,458.1,126.9,458.1,97.1z M541.8,97.1c0-17.5-13.1-31.5-30.1-31.5c-17.2,0-30.1,14-30.1,31.5
		c0,17.2,12.9,31.3,30.1,31.3C528.7,128.5,541.8,114.3,541.8,97.1z"/>
	<path class="st0" d="M599.5,135.4v13.5h-23.7v-131h23.9v40.5c7.3-9.2,19.5-15.2,33.5-15.2c26,0,51,19.6,51,54
		c0,34-25.8,53.8-50.6,53.8C619.3,150.9,607.1,145.3,599.5,135.4z M660.6,96.8c0-17.9-13.6-31.9-31.2-31.9
		c-17.7,0-30.8,14.2-30.8,31.9c0,17.9,13.1,32.2,30.8,32.2C646.9,129,660.6,114.8,660.6,96.8z"/>
	<path class="st0" d="M705.5,122.1c9,0,14.3,5.8,14.3,14.5c0,8.5-5.5,14.3-14.5,14.3s-14.3-5.8-14.3-14.3
		C691,127.9,696.5,122.1,705.5,122.1z"/>
	<path class="st0" d="M727.3,97.1c0-34.3,25.1-54,51.3-54c13.6,0,25.7,5.5,33.3,14.5V45.3h23.9v103.5h-23.9v-13.5
		c-7.6,9.7-20,15.6-33.6,15.6C753.3,150.9,727.3,131.1,727.3,97.1z M813.1,96.8c0-17.7-13.1-31.9-31-31.9c-17.7,0-31.3,14-31.3,31.9
		c0,18.1,13.6,32.2,31.3,32.2C800,129,813.1,114.7,813.1,96.8z"/>
	<path class="st0" d="M847.5,127l60.2-60.5h-58.9V45.3h90.1V67l-60.2,60.5h61.2v21.2h-92.4L847.5,127L847.5,127z"/>
</g>
</svg>
