<svg width="20" height="14" viewBox="0 0 20 14" fill="none" xmlns="http://www.w3.org/2000/svg">
    <path opacity="0.75" d="M19.4688 3.28125L10.625 0.125C10.4375 0.0625 10.2188 0 10 0C9.75 0 9.53125 0.0625 9.3125 0.125L0.5 3.28125C0.1875 3.40625 0 3.6875 0 4C0 4.34375 0.1875 4.625 0.5 4.75L2.375 5.40625C2 5.90625 1.71875 6.46875 1.59375 7.09375C1.25 7.25 1 7.59375 1 8C1 8.3125 1.125 8.59375 1.34375 8.78125L0.59375 13.4375C0.53125 13.75 0.78125 14 1.0625 14H2.90625C3.1875 14 3.4375 13.75 3.375 13.4375L2.625 8.78125C2.84375 8.59375 3 8.3125 3 8C3 7.6875 2.8125 7.40625 2.59375 7.25C2.71875 6.6875 3 6.1875 3.375 5.78125L9.3125 7.90625C9.53125 7.96875 9.75 8 10 8C10.2188 8 10.4375 7.96875 10.6562 7.90625L19.4688 4.75C19.7812 4.625 20 4.34375 20 4C20 3.6875 19.7812 3.40625 19.4688 3.28125ZM10.1562 6.5C10 6.53125 9.875 6.5 9.84375 6.5L5.46875 4.9375L10.125 3.5C10.4062 3.40625 10.5312 3.125 10.4688 2.875C10.375 2.59375 10.0938 2.4375 9.84375 2.53125L3.90625 4.375L2.90625 4L9.8125 1.53125C9.9375 1.5 10.0625 1.53125 10.125 1.53125L17.0625 4L10.1562 6.5ZM14.125 7.71875L14.5 11.2188C14.5 11.5625 12.9375 12.5 10 12.5C7.03125 12.5 5.5 11.5625 5.5 11.2188L5.84375 7.71875L4.40625 7.21875L4 11.1562C4 13.0625 7 14 10 14C12.9688 14 16 13.0625 15.9688 11.1562L15.5625 7.21875L14.125 7.71875Z" fill="#212944"/>
</svg>
