<svg width="22" height="22" viewBox="0 0 22 22" fill="none" xmlns="http://www.w3.org/2000/svg">
    <path d="M13.0913 5.72222H19.0451C19.5172 5.72222 19.7533 5.72222 19.8914 5.82149C20.0118 5.9081 20.0903 6.04141 20.1075 6.18877C20.1272 6.35767 20.0125 6.56403 19.7832 6.97677L18.3624 9.53435C18.2792 9.68403 18.2376 9.75887 18.2213 9.83812C18.2069 9.90827 18.2069 9.98062 18.2213 10.0508C18.2376 10.13 18.2792 10.2049 18.3624 10.3545L19.7832 12.9121C20.0125 13.3248 20.1272 13.5312 20.1075 13.7001C20.0903 13.8475 20.0118 13.9808 19.8914 14.0674C19.7533 14.1667 19.5172 14.1667 19.0451 14.1667H11.6135C11.0224 14.1667 10.7268 14.1667 10.501 14.0516C10.3024 13.9504 10.1409 13.7889 10.0397 13.5903C9.92466 13.3645 9.92466 13.0689 9.92466 12.4778V9.94444M6.23021 20.5L2.00799 3.61111M3.59137 9.94444H11.4024C11.9936 9.94444 12.2892 9.94444 12.515 9.8294C12.7136 9.7282 12.8751 9.56672 12.9763 9.3681C13.0913 9.14231 13.0913 8.84672 13.0913 8.25556V3.18889C13.0913 2.59772 13.0913 2.30214 12.9763 2.07634C12.8751 1.87773 12.7136 1.71625 12.515 1.61505C12.2892 1.5 11.9936 1.5 11.4024 1.5H3.64329C2.90596 1.5 2.53729 1.5 2.28514 1.65278C2.06414 1.78668 1.89993 1.99699 1.82363 2.24387C1.73657 2.52555 1.82599 2.88321 2.00483 3.59852L3.59137 9.94444Z" stroke="#344054" stroke-width="2" stroke-linecap="round" stroke-linejoin="round"/>
</svg>
