<svg xmlns="http://www.w3.org/2000/svg" width="17.503" height="17.516" viewBox="0 0 17.503 17.516">
  <g id="moon" transform="translate(-0.129 0)">
    <g id="Group_7" data-name="Group 7" transform="translate(0.129 0)">
      <g id="Group_6" data-name="Group 6" transform="translate(0 0)">
        <path id="Path_20" data-name="Path 20" d="M12.332.076A.76.76,0,0,0,11.5.195a.761.761,0,0,0-.258.795,8.4,8.4,0,0,1,.218,2.562,8.323,8.323,0,0,1-7.786,7.766,9.309,9.309,0,0,1-2.562-.2.738.738,0,0,0-.795.278.8.8,0,0,0-.119.834,9.126,9.126,0,0,0,8.3,5.284A4.152,4.152,0,0,0,9,17.5a9.223,9.223,0,0,0,8.621-8.621A9.063,9.063,0,0,0,12.332.076Zm4.489,8.76A8.4,8.4,0,0,1,8.956,16.7,8.311,8.311,0,0,1,.931,11.894a9.54,9.54,0,0,0,2.8.218,9.166,9.166,0,0,0,8.541-8.521,9.33,9.33,0,0,0-.238-2.8A8.31,8.31,0,0,1,16.821,8.835Z" transform="translate(-0.129 0)"/>
      </g>
    </g>
  </g>
</svg>
