<svg width="56" height="56" viewBox="0 0 56 56" fill="none" xmlns="http://www.w3.org/2000/svg">
<circle opacity="0.1" cx="28" cy="28" r="28" fill="#4B21F3"/>
<path d="M37.375 17.5C37.9844 17.5 38.5 18.0156 38.5 18.625C38.5 19.2812 37.9844 19.75 37.375 19.75H20.125C19.0469 19.75 18.25 20.5938 18.25 21.625V34.375C18.25 35.4531 19.0469 36.25 20.125 36.25H35.875C36.9062 36.25 37.75 35.4531 37.75 34.375V26.125C37.75 25.0938 36.9062 24.25 35.875 24.25H21.625C20.9688 24.25 20.5 23.7812 20.5 23.125C20.5 22.5156 20.9688 22 21.625 22H35.875C38.125 22 40 23.875 40 26.125V34.375C40 36.6719 38.125 38.5 35.875 38.5H20.125C17.8281 38.5 16 36.6719 16 34.375V21.625C16 19.375 17.8281 17.5 20.125 17.5H37.375ZM32.5 30.25C32.5 29.4531 33.1562 28.75 34 28.75C34.7969 28.75 35.5 29.4531 35.5 30.25C35.5 31.0938 34.7969 31.75 34 31.75C33.1562 31.75 32.5 31.0938 32.5 30.25Z" fill="#4B21F3"/>
</svg>
