<svg width="56" height="56" viewBox="0 0 56 56" fill="none" xmlns="http://www.w3.org/2000/svg">
<circle opacity="0.1" cx="28" cy="28" r="28" fill="#1CA73A"/>
<path d="M25.375 22C28.6562 22 31.7969 20.7344 34.1406 18.3906L35.9219 16.6094C36.8594 15.6719 38.5 16.3281 38.5 17.6875V24.4375C39.3438 24.8594 40 25.9844 40 27.25C40 28.5625 39.3438 29.6875 38.5 30.1094V36.8594C38.5 38.2188 36.8594 38.875 35.9219 37.9375L34.1406 36.1562C31.8906 33.9062 28.8906 32.5938 25.75 32.5469V37.375C25.75 38.8281 24.5312 40 23.125 40H21.625C20.1719 40 19 38.8281 19 37.375V32.5C17.3125 32.5 16 31.1875 16 29.5V25C16 23.3594 17.3125 22 19 22H25.375ZM36.25 19.4688L35.7344 19.9844C33.0625 22.6562 29.5 24.1562 25.75 24.25V30.2969C29.5 30.3438 33.0625 31.8906 35.7344 34.5625L36.25 35.0781V19.4688ZM21.25 37.375C21.25 37.6094 21.3906 37.75 21.625 37.75H23.125C23.3125 37.75 23.5 37.6094 23.5 37.375V32.5H21.25V37.375ZM18.25 25V29.5C18.25 29.9219 18.5781 30.25 19 30.25H23.5V24.25H19C18.5781 24.25 18.25 24.625 18.25 25Z" fill="#1CA73A"/>
</svg>
