<svg width="56" height="56" viewBox="0 0 56 56" fill="none" xmlns="http://www.w3.org/2000/svg">
<circle opacity="0.1" cx="28" cy="28" r="28" fill="#FF1158"/>
<path d="M33.25 16.8906C34.2812 15.8594 35.9219 15.8594 36.9531 16.8906L39.1094 19.0469C40.1406 20.0781 40.1406 21.7188 39.1094 22.75L35.3125 26.5469L33.3906 33.5781C33.1562 34.375 32.5469 35.0781 31.75 35.3594L19.3281 39.6719C18.4844 40 17.5 39.7656 16.8906 39.1094C16.2344 38.5 16 37.5156 16.2812 36.625L20.6406 24.25C20.9219 23.4531 21.625 22.8438 22.4219 22.6094L29.4062 20.6875L33.25 16.8906ZM29.875 22.8906L23.0312 24.7656C22.8906 24.8125 22.7969 24.9062 22.7969 25L18.9062 36.0156L23.6875 31.2344C23.5469 30.9531 23.5 30.625 23.5 30.25C23.5 29.0312 24.4844 28 25.75 28C26.9688 28 28 29.0312 28 30.25C28 31.5156 26.9688 32.5 25.75 32.5C25.375 32.5 25.0469 32.4531 24.7656 32.3125L19.9844 37.0938L31 33.2031C31.0938 33.2031 31.1875 33.0625 31.2344 32.9688L33.1094 26.125L29.875 22.8906Z" fill="#FF1158"/>
</svg>
