<svg width="56" height="56" viewBox="0 0 56 56" fill="none" xmlns="http://www.w3.org/2000/svg">
<circle opacity="0.1" cx="28" cy="28" r="28" fill="#0400D0"/>
<path d="M25 31.75C25 31 25.0469 31.375 20.9688 23.2656C20.5938 22.4219 19.7969 22 19 22C18.2031 22 17.3594 22.4219 16.9844 23.2656C12.9062 31.4219 13 31.0469 13 31.75C13 33.8594 15.6719 35.5 18.9531 35.5C22.1875 35.5 25 33.8594 25 31.75ZM18.9531 24.25L22.375 31H15.5781L18.9531 24.25ZM37.3281 37.75H29.125V23.3125C30.3906 22.9375 31.375 21.8594 31.6562 20.5H37.375C37.9844 20.5 38.4531 20.0312 38.4531 19.4219C38.4531 18.7656 37.9844 18.25 37.3281 18.25H31.375C30.8125 16.9375 29.5 16 28 16C26.4531 16 25.1406 16.9375 24.5312 18.25H18.625C17.9688 18.25 17.5 18.7656 17.5 19.375C17.5 19.9375 17.9688 20.5 18.625 20.5H24.2969C24.5781 21.8594 25.5625 22.9375 26.8281 23.3125V37.75H18.625C17.9688 37.75 17.5 38.2656 17.5 38.875C17.5 39.4375 17.9688 40 18.625 40H37.3281C37.9375 40 38.4062 39.5312 38.4062 38.9219C38.4531 38.2656 37.9844 37.75 37.3281 37.75ZM28 21.25C27.1562 21.25 26.5 20.5938 26.5 19.75C26.5 18.9531 27.2031 18.25 28 18.25C28.75 18.25 29.4531 18.9531 29.4531 19.75C29.4531 20.5938 28.7969 21.25 28 21.25ZM42.9531 31.75C42.9531 31 43 31.375 38.9219 23.2656C38.5938 22.4219 37.75 22 36.9531 22C36.1562 22 35.3125 22.4219 34.9375 23.2656C30.9062 31.4219 31 31.0469 31 31.75C31 33.8594 33.6719 35.5 37 35.5C40.2812 35.5 42.9531 33.8594 42.9531 31.75ZM33.5781 31C33.5781 31 36.0625 26.0312 36.9531 24.25L40.3281 31H33.5781Z" fill="#0400D0"/>
</svg>
