<svg width="56" height="56" viewBox="0 0 56 56" fill="none" xmlns="http://www.w3.org/2000/svg">
<circle opacity="0.1" cx="28" cy="28" r="28" fill="#0066FF"/>
<path d="M35.5 16H20.5C19.6562 16 19 16.7031 19 17.5V20.5C19 21.3438 19.6562 22 20.5 22V37.375C20.5 38.8281 21.6719 40 23.125 40H32.875C34.2812 40 35.5 38.8281 35.5 37.375V22C36.2969 22 37 21.3438 37 20.5V17.5C37 16.7031 36.2969 16 35.5 16ZM33.25 37.375C33.25 37.6094 33.0625 37.75 32.875 37.75H23.125C22.8906 37.75 22.75 37.6094 22.75 37.375V22H33.25V37.375ZM34.75 19.75H21.25V18.25H34.75V19.75ZM24.25 31H26.5V33.25C26.5 33.6719 26.8281 34 27.25 34H28.75C29.125 34 29.5 33.6719 29.5 33.25V31H31.75C32.125 31 32.5 30.6719 32.5 30.25V28.75C32.5 28.375 32.125 28 31.75 28H29.5V25.75C29.5 25.375 29.125 25 28.75 25H27.25C26.8281 25 26.5 25.375 26.5 25.75V28H24.25C23.8281 28 23.5 28.375 23.5 28.75V30.25C23.5 30.6719 23.8281 31 24.25 31Z" fill="#0066FF"/>
</svg>
