<svg width="56" height="56" viewBox="0 0 56 56" fill="none" xmlns="http://www.w3.org/2000/svg">
<circle opacity="0.1" cx="28" cy="28" r="28" fill="#0079D0"/>
<path d="M26.125 16.2344C26.1719 16.0938 26.3125 16 26.5 16C26.6406 16 26.7812 16.0938 26.8281 16.2344L27.4844 18.0156L29.2656 18.6719C29.4062 18.7188 29.5 18.8594 29.5 19C29.5 19.1875 29.4062 19.3281 29.2656 19.375L27.4844 20.0312L26.8281 21.7656C26.7812 21.9062 26.6406 22 26.5 22C26.3125 22 26.1719 21.9062 26.125 21.7656L25.4688 20.0312L23.6875 19.375C23.5469 19.3281 23.5 19.1875 23.5 19C23.5 18.8594 23.5469 18.7188 23.6875 18.6719L25.4688 18.0156L26.125 16.2344ZM37.7031 16.7031L39.2969 18.2969C40.1875 19.1875 40.1875 20.5938 39.2969 21.4844L21.4375 39.3438C20.5469 40.2344 19.1406 40.2344 18.25 39.3438L16.6562 37.75C15.7656 36.8594 15.7656 35.4531 16.6562 34.5625L34.5156 16.7031C35.4062 15.8125 36.8125 15.8125 37.7031 16.7031ZM36.1094 18.25L30.9531 23.4062L32.5938 25.0469L37.7031 19.8906L36.1094 18.25ZM19.8438 37.75L31 26.6406L29.3594 25L18.25 36.1562L19.8438 37.75ZM14.8281 21.5312L17.5 20.5L18.4844 17.875C18.5312 17.6406 18.7656 17.5 19 17.5C19.1875 17.5 19.4219 17.6406 19.4688 17.875L20.5 20.5L23.125 21.5312C23.3594 21.5781 23.5 21.8125 23.5 22C23.5 22.2344 23.3594 22.4688 23.125 22.5156L20.5 23.5L19.4688 26.1719C19.4219 26.3594 19.1875 26.5 19 26.5C18.7656 26.5 18.5312 26.3594 18.4844 26.1719L17.5 23.5L14.8281 22.5156C14.5938 22.4688 14.5 22.2344 14.5 22C14.5 21.8125 14.5938 21.5781 14.8281 21.5312ZM31.3281 33.5312L34 32.5L34.9844 29.875C35.0312 29.6406 35.2656 29.5 35.5 29.5C35.6875 29.5 35.9219 29.6406 35.9688 29.875L37 32.5L39.625 33.5312C39.8594 33.5781 40 33.8125 40 34C40 34.2344 39.8594 34.4688 39.625 34.5156L37 35.5L35.9688 38.1719C35.9219 38.3594 35.6875 38.5 35.5 38.5C35.2656 38.5 35.0312 38.3594 34.9844 38.1719L34 35.5L31.3281 34.5156C31.0938 34.4688 31 34.2344 31 34C31 33.8125 31.0938 33.5781 31.3281 33.5312Z" fill="#0079D0"/>
</svg>
