<svg width="56" height="56" viewBox="0 0 56 56" fill="none" xmlns="http://www.w3.org/2000/svg">
<circle opacity="0.1" cx="28" cy="28" r="28" fill="#E20857"/>
<path d="M21.2031 18.25H33.1094L34.75 19.8438V23.5H37V19.8438C37 19.2812 36.7188 18.6719 36.2969 18.25L34.75 16.7031C34.3281 16.2812 33.7188 16 33.1562 16H21.2031C19.9844 16 19 17.0312 19 18.25V22.1406V23.5H21.25L21.2031 18.25ZM36.625 25H19.375C17.5 25 16 26.5469 16 28.375V33.625C16 34.2812 16.4688 34.75 17.125 34.75H19.75V38.5C19.75 39.3438 20.4062 40 21.25 40H34.75C35.5469 40 36.25 39.3438 36.25 38.5V34.75H38.875C39.4844 34.75 40 34.2812 40 33.625V28.375C40 26.5469 38.4531 25 36.625 25ZM34 37.75H22V33.25H34V37.75ZM37.75 32.5H36.25C36.25 31.7031 35.5469 31 34.75 31H21.25C20.4062 31 19.75 31.7031 19.75 32.5H18.25V28.375C18.25 27.7656 18.7188 27.25 19.375 27.25H36.625C37.2344 27.25 37.75 27.7656 37.75 28.375V32.5Z" fill="#E20857"/>
</svg>
