<svg width="56" height="56" viewBox="0 0 56 56" fill="none" xmlns="http://www.w3.org/2000/svg">
<circle opacity="0.1" cx="28" cy="28" r="28" fill="#0FB8AE"/>
<path d="M26.8281 16.2812C27.2031 16.0938 27.5781 16 28 16C28.375 16 28.75 16.0938 29.125 16.2812L38.9688 20.4531C39.5781 20.7344 40 21.3438 40 22C40 22.7031 39.5781 23.3125 38.9688 23.5938L29.125 27.7656C28.75 27.9531 28.375 28 28 28C27.5781 28 27.2031 27.9531 26.8281 27.7656L16.9844 23.5938C16.375 23.3125 16 22.7031 16 22C16 21.3438 16.375 20.7344 16.9844 20.4531L26.8281 16.2812ZM28 18.25C27.8594 18.25 27.7656 18.2969 27.7188 18.3438L19.0938 22L27.7188 25.7031C27.7656 25.75 27.8594 25.75 28 25.75C28.0938 25.75 28.1875 25.75 28.2344 25.7031L36.8594 22L28.2344 18.3438C28.1875 18.2969 28.0938 18.25 28 18.25ZM27.7188 31.7031C27.7656 31.75 27.8594 31.75 28 31.75C28.0938 31.75 28.1875 31.75 28.2344 31.7031L37.1875 27.9062C36.9531 27.5781 36.9062 27.1562 37.0938 26.7812C37.375 26.2188 38.0312 25.9844 38.5938 26.2656L39.0156 26.5C39.625 26.7812 40 27.3438 40 28C40 28.7031 39.5781 29.3125 38.9219 29.5938L29.125 33.7656C28.75 33.9531 28.375 34 28 34C27.5781 34 27.2031 33.9531 26.8281 33.7656L17.0312 29.5938C16.375 29.3125 16 28.7031 16 27.9531C16 27.3906 16.2344 26.875 16.7031 26.5469L17.2188 26.1719C17.6875 25.8438 18.3906 25.9375 18.7656 26.4531C19.0938 26.875 19.0469 27.4844 18.6719 27.8594L27.7188 31.7031ZM18.7656 32.4531C19.0938 32.875 19.0469 33.4844 18.6719 33.8594L27.7188 37.7031C27.7656 37.75 27.8594 37.75 28 37.75C28.0938 37.75 28.1875 37.75 28.2344 37.7031L37.1875 33.9062C36.9531 33.5781 36.9062 33.1562 37.0938 32.7812C37.375 32.2188 38.0312 31.9844 38.5938 32.2656L39.0156 32.5C39.625 32.7812 40 33.3438 40 34C40 34.7031 39.5781 35.3125 38.9219 35.5938L29.125 39.7656C28.75 39.9531 28.375 40 28 40C27.5781 40 27.2031 39.9531 26.8281 39.7656L17.0312 35.5938C16.375 35.3125 16 34.7031 16 33.9531C16 33.3906 16.2344 32.875 16.7031 32.5469L17.2188 32.1719C17.6875 31.8438 18.3906 31.9375 18.7656 32.4531Z" fill="#0FB8AE"/>
</svg>
