<svg width="56" height="56" viewBox="0 0 56 56" fill="none" xmlns="http://www.w3.org/2000/svg">
<circle opacity="0.1" cx="28" cy="28" r="28" fill="#0400D0"/>
<path d="M40 28C40 34.6562 34.6094 40 28 40C21.3438 40 16 34.6562 16 28C16 25.5156 16.75 23.2188 18.0625 21.2969C18.3906 20.7812 19.0938 20.6406 19.6094 20.9688C20.125 21.3438 20.2656 22.0469 19.8906 22.5625C18.8594 24.1094 18.2031 25.9844 18.2031 28C18.2031 33.3906 22.6094 37.75 27.9531 37.75C33.3438 37.75 37.75 33.3906 37.75 28C37.75 23.0312 33.9531 18.9062 29.125 18.3438V20.875C29.125 21.5312 28.6094 22 27.9531 22C27.3438 22 26.8281 21.5312 26.8281 20.875V17.125C26.8281 16.5156 27.3438 16 27.9531 16C34.6094 16 40 21.3906 40 28ZM28.75 27.2031C29.2188 27.6719 29.2188 28.375 28.75 28.7969C28.3281 29.2656 27.625 29.2656 27.2031 28.7969L23.4531 25.0469C22.9844 24.625 22.9844 23.9219 23.4531 23.4531C23.875 23.0312 24.5781 23.0312 25 23.4531L28.75 27.2031Z" fill="#0400D0"/>
</svg>
