<svg width="56" height="56" viewBox="0 0 56 56" fill="none" xmlns="http://www.w3.org/2000/svg">
<circle opacity="0.1" cx="28" cy="28" r="28" fill="#0FB8AE"/>
<path d="M18.25 35.125C18.25 35.7812 18.7188 36.25 19.375 36.25H38.875C39.4844 36.25 40 36.7656 40 37.375C40 38.0312 39.4844 38.5 38.875 38.5H19.375C17.5 38.5 16 37 16 35.125V18.625C16 18.0156 16.4688 17.5 17.125 17.5C17.7344 17.5 18.25 18.0156 18.25 18.625V35.125ZM31.75 30.2969C31.3281 30.7656 30.625 30.7656 30.2031 30.2969L26.4531 26.5938L22.75 30.2969C22.3281 30.7656 21.625 30.7656 21.2031 30.2969C20.7344 29.875 20.7344 29.1719 21.2031 28.7031L25.7031 24.2031C25.8906 24.0156 26.1719 23.875 26.4531 23.875C26.7812 23.875 27.0625 24.0156 27.25 24.2031L31 27.9531L36.5781 22.3281C37 21.9062 37.7031 21.9062 38.125 22.3281C38.5938 22.7969 38.5938 23.5 38.125 23.9219L31.75 30.2969Z" fill="#0FB8AE"/>
</svg>
