<svg width="56" height="56" viewBox="0 0 56 56" fill="none" xmlns="http://www.w3.org/2000/svg">
<circle opacity="0.1" cx="28" cy="28" r="28" fill="#D0007D"/>
<path d="M42.2031 22.4219L28.9375 17.6875C28.6562 17.5938 28.3281 17.5 28 17.5C27.625 17.5 27.2969 17.5938 26.9688 17.6875L13.75 22.4219C13.2812 22.6094 13 23.0312 13 23.5C13 24.0156 13.2812 24.4375 13.75 24.625L16.5625 25.6094C16 26.3594 15.5781 27.2031 15.3906 28.1406C14.875 28.375 14.5 28.8906 14.5 29.5C14.5 29.9688 14.6875 30.3906 15.0156 30.6719L13.8906 37.6562C13.7969 38.125 14.1719 38.5 14.5938 38.5H17.3594C17.7812 38.5 18.1562 38.125 18.0625 37.6562L16.9375 30.6719C17.2656 30.3906 17.5 29.9688 17.5 29.5C17.5 29.0312 17.2188 28.6094 16.8906 28.375C17.0781 27.5312 17.5 26.7812 18.0625 26.1719L26.9688 29.3594C27.2969 29.4531 27.625 29.5 28 29.5C28.3281 29.5 28.6562 29.4531 28.9844 29.3594L42.2031 24.625C42.6719 24.4375 43 24.0156 43 23.5C43 23.0312 42.6719 22.6094 42.2031 22.4219ZM28.2344 27.25C28 27.2969 27.8125 27.25 27.7656 27.25L21.2031 24.9062L28.1875 22.75C28.6094 22.6094 28.7969 22.1875 28.7031 21.8125C28.5625 21.3906 28.1406 21.1562 27.7656 21.2969L18.8594 24.0625L17.3594 23.5L27.7188 19.7969C27.9062 19.75 28.0938 19.7969 28.1875 19.7969L38.5938 23.5L28.2344 27.25ZM34.1875 29.0781L34.75 34.3281C34.75 34.8438 32.4062 36.25 28 36.25C23.5469 36.25 21.25 34.8438 21.25 34.3281L21.7656 29.0781L19.6094 28.3281L19 34.2344C19 37.0938 23.5 38.5 28 38.5C32.4531 38.5 37 37.0938 36.9531 34.2344L36.3438 28.3281L34.1875 29.0781Z" fill="#D0007D"/>
</svg>
