<svg width="56" height="56" viewBox="0 0 56 56" fill="none" xmlns="http://www.w3.org/2000/svg">
<circle opacity="0.1" cx="28" cy="28" r="28" fill="#D14B00"/>
<path d="M38.5 32.5V18.25C38.5 17.0312 37.4688 16 36.25 16H21.25C19.1406 16 17.5 17.6875 17.5 19.75V36.25C17.5 38.3594 19.1406 40 21.25 40H37.375C37.9844 40 38.5 39.5312 38.5 38.875C38.5 38.2656 37.9844 37.75 37.375 37.75H37V34.6562C37.8438 34.3281 38.5 33.4844 38.5 32.5ZM34.75 37.75H21.25C20.4062 37.75 19.75 37.0938 19.75 36.25C19.75 35.4531 20.4062 34.75 21.25 34.75H34.75V37.75ZM36.25 32.5H21.25C20.6875 32.5 20.1719 32.6406 19.75 32.8281V19.75C19.75 18.9531 20.4062 18.25 21.25 18.25H36.25V32.5ZM24.625 23.5H32.875C33.4844 23.5 34 23.0312 34 22.375C34 21.7656 33.4844 21.25 32.875 21.25H24.625C23.9688 21.25 23.5 21.7656 23.5 22.375C23.5 23.0312 23.9688 23.5 24.625 23.5ZM24.625 27.25H32.875C33.4844 27.25 34 26.7812 34 26.125C34 25.5156 33.4844 25 32.875 25H24.625C23.9688 25 23.5 25.5156 23.5 26.125C23.5 26.7812 23.9688 27.25 24.625 27.25Z" fill="#D14B00"/>
</svg>
