<svg width="56" height="56" viewBox="0 0 56 56" fill="none" xmlns="http://www.w3.org/2000/svg">
<circle opacity="0.1" cx="28" cy="28" r="28" fill="#2196F3"/>
<path d="M37.375 37.75H18.625C17.9688 37.75 17.5 38.2656 17.5 38.875C17.5 39.5312 17.9688 40 18.625 40H37.375C37.9844 40 38.5 39.5312 38.5 38.875C38.5 38.2656 37.9844 37.75 37.375 37.75ZM40 16H16C14.3125 16 13 17.3594 13 19V32.5C13 34.1875 14.3125 35.5 16 35.5H40C41.6406 35.5 43 34.1875 43 32.5V19C43 17.3594 41.6406 16 40 16ZM40.75 32.5C40.75 32.9219 40.375 33.25 40 33.25H16C15.5781 33.25 15.25 32.9219 15.25 32.5V19C15.25 18.625 15.5781 18.25 16 18.25H40C40.375 18.25 40.75 18.625 40.75 19V32.5Z" fill="#2196F3"/>
</svg>
