<svg width="56" height="56" viewBox="0 0 56 56" fill="none" xmlns="http://www.w3.org/2000/svg">
<circle opacity="0.1" cx="28" cy="28" r="28" fill="#F5A200"/>
<path d="M37.1406 26.5C36.2031 26.5 35.3594 26.2188 34.7031 25.7031C34.4688 25.5625 34.2812 25.375 34.0938 25.1406C33.9062 25.375 33.7188 25.5625 33.4844 25.7031C32.7812 26.2188 31.9375 26.5 31.0469 26.5C30.1094 26.5 29.2656 26.2188 28.6094 25.7031C28.375 25.5625 28.1406 25.375 27.9531 25.1406C27.7656 25.375 27.5781 25.5625 27.3438 25.7031C26.6875 26.2188 25.8438 26.5 24.9062 26.5C24.0156 26.5 23.1719 26.2188 22.4688 25.7031C22.2344 25.5625 22.0469 25.375 21.8594 25.1406C21.6719 25.375 21.4844 25.5625 21.25 25.7031C20.5469 26.2188 19.7031 26.5 18.8125 26.5C18.625 26.5 18.4375 26.5 18.25 26.5C15.625 26.125 14.4062 23.0781 15.8125 20.875L18.4844 16.6562C18.7188 16.2344 19.1406 16 19.6094 16H36.3438C36.8125 16 37.2344 16.2344 37.4688 16.6562L40.1406 20.875C41.5469 23.0781 40.3281 26.125 37.7031 26.5C37.5156 26.5 37.3281 26.5 37.1406 26.5ZM35.8281 18.25H20.125L17.6875 22.0938C17.4531 22.5156 17.4062 23.0312 17.5938 23.5C17.7812 23.9219 18.1094 24.2031 18.5312 24.25C18.625 24.25 18.7188 24.25 18.8125 24.25C19.375 24.25 19.8438 24.0156 20.1719 23.6406C20.6406 23.1719 21.2031 22.8906 21.8594 22.8906C22.5156 22.8906 23.125 23.1719 23.5469 23.6406C23.875 24.0156 24.3438 24.25 24.9062 24.25C25.4688 24.25 25.9375 24.0156 26.3125 23.6406C26.7344 23.1719 27.3438 22.8906 27.9531 22.8906C28.6094 22.8906 29.2188 23.1719 29.6406 23.6406C29.9688 24.0156 30.4844 24.25 31.0469 24.25C31.5625 24.25 32.0781 24.0156 32.4062 23.6406C32.8281 23.1719 33.4375 22.8906 34.0938 22.8906C34.7031 22.8906 35.3125 23.1719 35.7344 23.6406C36.1094 24.0156 36.5781 24.25 37.1406 24.25C37.2344 24.25 37.3281 24.25 37.4219 24.25C37.8438 24.2031 38.1719 23.9219 38.3594 23.5C38.5469 23.0312 38.5 22.5156 38.2656 22.0938L35.8281 18.25ZM36.25 31.75V27.9531C36.5312 28 36.8125 28 37.1406 28C37.4219 28 37.6562 28 37.8906 27.9531C38.0781 27.9531 38.3125 27.9062 38.5 27.8594V37C38.5 38.6875 37.1406 40 35.5 40H20.5C18.8125 40 17.5 38.6875 17.5 37V27.8594C17.6406 27.9062 17.8281 27.9531 18.0156 27.9531H18.0625C18.2969 28 18.5312 28 18.8125 28C19.1406 28 19.4219 28 19.75 27.9531V31.75H36.25ZM36.25 34H19.75V37C19.75 37.4219 20.0781 37.75 20.5 37.75H35.5C35.875 37.75 36.25 37.4219 36.25 37V34Z" fill="#FF7F00"/>
</svg>
